<svg version="1.1" viewBox="0.0 0.0 2129.8267716535433 2607.8897637795276" fill="none" stroke="none" stroke-linecap="square" stroke-miterlimit="10" xmlns:xlink="http://www.w3.org/1999/xlink" xmlns="http://www.w3.org/2000/svg"><clipPath id="p.0"><path d="m0 0l2129.8267 0l0 2607.8896l-2129.8267 0l0 -2607.8896z" clip-rule="nonzero"/></clipPath><g clip-path="url(#p.0)"><path fill="#000000" fill-opacity="0.0" d="m0 0l2129.8267 0l0 2607.8896l-2129.8267 0z" fill-rule="evenodd"/><path fill="#000000" fill-opacity="0.0" d="m423.2222 -36.74033l-479.3701 479.3701" fill-rule="evenodd"/><path stroke="#000000" stroke-width="24.0" stroke-linejoin="round" stroke-linecap="butt" d="m423.2222 -36.74033l-479.3701 479.3701" fill-rule="evenodd"/><path fill="#000000" fill-opacity="0.0" d="m876.1196 -40.51634l-920.9449 920.9449" fill-rule="evenodd"/><path stroke="#000000" stroke-width="24.0" stroke-linejoin="round" stroke-linecap="butt" d="m876.1196 -40.51634l-920.9449 920.9449" fill-rule="evenodd"/><path fill="#000000" fill-opacity="0.0" d="m1330.9462 -19.718897l-1419.055 1419.0865" fill-rule="evenodd"/><path stroke="#000000" stroke-width="24.0" stroke-linejoin="round" stroke-linecap="butt" d="m1330.9462 -19.718897l-1419.055 1419.0865" fill-rule="evenodd"/><path fill="#000000" fill-opacity="0.0" d="m1817.8042 -57.46719l-1911.5906 1911.5906" fill-rule="evenodd"/><path stroke="#000000" stroke-width="24.0" stroke-linejoin="round" stroke-linecap="butt" d="m1817.8042 -57.46719l-1911.5906 1911.5906" fill-rule="evenodd"/><path fill="#000000" fill-opacity="0.0" d="m2180.089 14.20634l-2330.5513 2330.5513" fill-rule="evenodd"/><path stroke="#000000" stroke-width="24.0" stroke-linejoin="round" stroke-linecap="butt" d="m2180.089 14.20634l-2330.5513 2330.5513" fill-rule="evenodd"/><path fill="#000000" fill-opacity="0.0" d="m2214.0498 429.367l-2258.8347 2258.8347" fill-rule="evenodd"/><path stroke="#000000" stroke-width="24.0" stroke-linejoin="round" stroke-linecap="butt" d="m2214.0498 429.367l-2258.8347 2258.8347" fill-rule="evenodd"/><path fill="#000000" fill-opacity="0.0" d="m2172.5725 946.4681l-1822.9292 1822.9292" fill-rule="evenodd"/><path stroke="#000000" stroke-width="24.0" stroke-linejoin="round" stroke-linecap="butt" d="m2172.5725 946.4681l-1822.9292 1822.9292" fill-rule="evenodd"/><path fill="#000000" fill-opacity="0.0" d="m2289.5698 1278.5801l-1541.7638 1541.7639" fill-rule="evenodd"/><path stroke="#000000" stroke-width="24.0" stroke-linejoin="round" stroke-linecap="butt" d="m2289.5698 1278.5801l-1541.7638 1541.7639" fill-rule="evenodd"/><path fill="#000000" fill-opacity="0.0" d="m2330.153 1700.3517l-1081.2913 1081.2914" fill-rule="evenodd"/><path stroke="#000000" stroke-width="24.0" stroke-linejoin="round" stroke-linecap="butt" d="m2330.153 1700.3517l-1081.2913 1081.2914" fill-rule="evenodd"/><path fill="#000000" fill-opacity="0.0" d="m2382.982 2096.6206l-671.77954 671.77954" fill-rule="evenodd"/><path stroke="#000000" stroke-width="24.0" stroke-linejoin="round" stroke-linecap="butt" d="m2382.982 2096.6206l-671.77954 671.77954" fill-rule="evenodd"/></g></svg>